# xmcd CD database file
#
# Track frame offsets:
#	150
#	24699
#	46614
#	71411
#	100057
#	129433
#	158928
#	185929
#	208157
#	227762
#
# Disc length: 3714 seconds
#
# Revision: 0
# Processed by: cddbd v1.5.2PL0 Copyright (c) Steve Scherf et al.
# Submitted via: CDex 1.70beta2
#
DISCID=870e800a
DTITLE=Shirley Scott - Six Classic Albums [CD2)
DYEAR=1900
DGENRE=Jazz
TTITLE0=Man with a horn
TTITLE1=Smoke gets in your eyes
TTITLE2=I cover the waterfront
TTITLE3=The man I love
TTITLE4=Hip soul
TTITLE5=411 West
TTITLE6=By myself
TTITLE7=Trane's blues
TTITLE8=Stanley's time
TTITLE9=Out of this world
EXTD=
EXTT0=
EXTT1=
EXTT2=
EXTT3=
EXTT4=
EXTT5=
EXTT6=
EXTT7=
EXTT8=
EXTT9=
PLAYORDER=
